<svg width="165" height="188" viewBox="0 0 165 188" fill="none" xmlns="http://www.w3.org/2000/svg">
<g clip-path="url(#clip0_123_1449)">
<path d="M0 12C0 5.37258 5.37258 0 12 0H153C159.627 0 165 5.37258 165 12V176C165 182.627 159.627 188 153 188H12C5.37258 188 0 182.627 0 176V12Z" fill="url(#paint0_linear_123_1449)"/>
<path d="M156.795 146.26H150.709C147.73 146.26 145.315 143.836 145.315 140.848C145.315 137.858 147.73 135.436 150.709 135.436H156.795C159.774 135.436 162.189 137.859 162.189 140.848C162.189 143.836 159.774 146.26 156.795 146.26Z" fill="#FFAF40"/>
<path d="M158.815 155.774H169.569C176.104 155.774 181.401 163.032 181.401 171.985C181.401 180.937 176.104 188.195 169.569 188.195H159.193L158.815 155.774Z" fill="#44433F"/>
<path d="M159.193 188.195C165.728 188.195 171.025 180.937 171.025 171.985C171.025 163.032 165.728 155.774 159.193 155.774C152.658 155.774 147.361 163.032 147.361 171.985C147.361 180.937 152.658 188.195 159.193 188.195Z" fill="#595751"/>
<path d="M103.012 155.774H113.766C120.301 155.774 125.598 163.032 125.598 171.985C125.598 180.937 120.301 188.195 113.766 188.195H103.39L103.012 155.774Z" fill="#44433F"/>
<path d="M157.109 140.648L144.023 124.137C141.886 121.441 139.171 119.263 136.078 117.766C132.986 116.269 129.597 115.492 126.164 115.492H83.9835C81.0979 115.492 78.7587 117.839 78.7587 120.735V173.838C78.7587 176.734 81.0979 179.081 83.9835 179.081H181.414C183.578 179.081 185.333 177.32 185.333 175.149V164.905C185.333 157.37 180.928 150.536 174.08 147.446L157.109 140.648Z" fill="#FFC751"/>
<path d="M185.333 164.905V175.151C185.333 177.32 183.577 179.082 181.415 179.082H140.355C155.513 173.854 167.647 162.113 173.442 147.192L174.08 147.447C180.929 150.537 185.333 157.37 185.333 164.905Z" fill="#FFAF40"/>
<path d="M128.792 154.253H177.38V164.193H128.792V154.253Z" fill="#595751"/>
<path d="M177.38 154.251V164.191H154.537C158.513 162.384 161.455 158.694 162.239 154.251H177.38Z" fill="#44433F"/>
<path d="M112.039 142.454L101.145 125.107C100.049 123.361 101.299 121.088 103.355 121.088H139.085C139.871 121.088 140.647 121.266 141.355 121.609C142.063 121.951 142.685 122.45 143.174 123.067L157.109 140.649C158.47 142.366 157.251 144.902 155.064 144.902H116.46C115.577 144.902 114.709 144.677 113.936 144.249C113.163 143.821 112.51 143.204 112.039 142.454Z" fill="#B6F0FF"/>
<path d="M126.513 121.088H108.247C105.674 121.088 103.588 123.181 103.588 125.764C103.588 128.346 105.674 130.44 108.247 130.44H126.513C129.086 130.44 131.173 128.346 131.173 125.764C131.173 123.181 129.086 121.088 126.513 121.088Z" fill="#DCFEFF"/>
<path d="M120.491 121.088H119.405C116.831 121.088 114.745 123.181 114.745 125.764C114.745 128.346 116.831 130.44 119.405 130.44H120.491C123.064 130.44 125.15 128.346 125.15 125.764C125.15 123.181 123.064 121.088 120.491 121.088Z" fill="white"/>
<path d="M155.065 144.902H138.663C140.984 141.826 142.36 137.996 142.36 133.84C142.36 128.884 140.403 124.388 137.223 121.088H139.085C140.677 121.088 142.184 121.815 143.174 123.066L157.11 140.647C158.469 142.365 157.252 144.902 155.065 144.902Z" fill="#73E1FF"/>
<path d="M102.128 142.892L88.8191 121.7C88.7014 121.512 88.5383 121.358 88.3451 121.251C88.1518 121.144 87.9347 121.088 87.714 121.088H81.5551V144.902H101.023C102.051 144.902 102.676 143.765 102.128 142.892Z" fill="#A0DAF2"/>
<path d="M103.39 188.195C109.925 188.195 115.222 180.937 115.222 171.985C115.222 163.032 109.925 155.774 103.39 155.774C96.8553 155.774 91.558 163.032 91.558 171.985C91.558 180.937 96.8553 188.195 103.39 188.195Z" fill="#595751"/>
<path d="M103.39 179.521C106.428 179.521 108.891 176.147 108.891 171.984C108.891 167.822 106.428 164.448 103.39 164.448C100.352 164.448 97.8892 167.822 97.8892 171.984C97.8892 176.147 100.352 179.521 103.39 179.521Z" fill="#E8E4D8"/>
<path d="M99.8626 146.26H93.7761C90.7972 146.26 88.3826 143.836 88.3826 140.848C88.3826 137.858 90.7975 135.436 93.7761 135.436H99.8626C102.841 135.436 105.256 137.859 105.256 140.848C105.256 143.836 102.841 146.26 99.8626 146.26Z" fill="#FFAF40"/>
<path d="M139.568 159.015L137.24 156.109C136.776 155.53 136.189 155.062 135.52 154.741C134.852 154.42 134.121 154.253 133.38 154.253H124.43C121.695 154.253 119.478 156.478 119.478 159.223C119.478 161.967 121.695 164.193 124.43 164.193H137.096C139.759 164.193 141.237 161.098 139.568 159.015ZM167.904 159.015L170.233 156.109C170.697 155.53 171.284 155.062 171.952 154.741C172.621 154.42 173.352 154.253 174.093 154.253H180.38C183.115 154.253 185.333 156.478 185.333 159.223C185.333 161.967 183.115 164.193 180.38 164.193H170.377C167.714 164.193 166.236 161.098 167.904 159.015Z" fill="#FFF7C7"/>
<path d="M172.72 179.08H137.275L138.841 173.612C139.143 172.559 139.777 171.634 140.649 170.975C141.521 170.316 142.583 169.96 143.674 169.96H166.321C168.563 169.96 170.534 171.45 171.154 173.612L172.72 179.08Z" fill="#E8E4D8"/>
<path d="M129.754 175.648C131.62 175.648 133.133 174.063 133.133 172.108C133.133 170.152 131.62 168.567 129.754 168.567C127.888 168.567 126.375 170.152 126.375 172.108C126.375 174.063 127.888 175.648 129.754 175.648Z" fill="#FFF7C7"/>
<path d="M149.242 154.253H117.887C115.313 154.253 113.227 152.16 113.227 149.577C113.227 146.995 115.313 144.901 117.887 144.901H149.242C151.816 144.901 153.902 146.995 153.902 149.577C153.902 152.16 151.816 154.253 149.242 154.253Z" fill="#FFE059"/>
<path d="M131.437 144.901H125.756C123.182 144.901 121.096 146.995 121.096 149.577C121.096 152.16 123.182 154.253 125.756 154.253H131.437C134.01 154.253 136.096 152.16 136.096 149.577C136.097 146.995 134.01 144.901 131.437 144.901Z" fill="#FFF370"/>
<path d="M172.721 179.082H158.052C160.908 176.804 163.016 173.618 163.948 169.962H166.322C167.413 169.962 168.475 170.318 169.346 170.977C170.218 171.635 170.853 172.561 171.155 173.613L172.721 179.082Z" fill="#D8D4C9"/>
<path d="M111.929 133.573C111.929 116.158 97.8784 102.037 80.5324 102C63.275 101.963 48.9475 116.354 49.0002 133.671C49.0298 143.407 53.4513 152.106 60.3808 157.878C69.2795 165.29 75.5282 175.412 78.4557 186.639C78.9967 188.713 81.9319 188.713 82.473 186.639L82.5276 186.429C85.431 175.295 91.6387 165.259 100.484 157.931C107.474 152.14 111.929 143.379 111.929 133.573Z" fill="#FE255F"/>
<path d="M111.928 133.572C111.928 143.378 107.474 152.141 100.484 157.932C91.6395 165.259 85.4302 175.294 82.5278 186.429L82.4724 186.639C82.2024 187.676 81.3332 188.195 80.4641 188.195C79.595 188.195 78.7261 187.676 78.4559 186.639C76.0485 177.405 71.3945 168.92 64.8665 162.075C67.4151 162.652 70.0199 162.943 72.6327 162.941C92.0288 162.941 107.752 147.163 107.752 127.7C107.752 122.682 106.707 117.907 104.821 113.584C109.262 119.028 111.928 125.988 111.928 133.572Z" fill="#E01152"/>
<path d="M80.4644 154.348C92.0329 154.348 101.411 144.938 101.411 133.329C101.411 121.721 92.0329 112.311 80.4644 112.311C68.8959 112.311 59.5178 121.721 59.5178 133.329C59.5178 144.938 68.8959 154.348 80.4644 154.348Z" fill="#F9F8F2"/>
<path d="M101.41 133.33C101.41 144.658 92.4788 153.894 81.296 154.332C89.1687 149.673 94.4511 141.075 94.4511 131.239C94.4511 124.522 91.9875 118.383 87.9175 113.682C95.8054 116.698 101.41 124.357 101.41 133.33Z" fill="#F1EEE0"/>
<path d="M49.0001 133.671C49.0031 134.617 49.0478 135.553 49.1325 136.477C49.4424 139.868 52.8545 142.036 56.0546 140.905L56.1547 140.87C58.4346 140.066 59.8589 137.811 59.6206 135.398C59.5526 134.71 59.5185 134.019 59.5186 133.328C59.5186 123.221 66.6306 114.783 76.1084 112.772C78.5041 112.264 80.2394 110.177 80.2394 107.72C80.2394 104.465 77.2624 101.997 74.089 102.669C59.8498 105.687 48.9536 118.564 49.0001 133.671Z" fill="#FC709B"/>
<path d="M66.9834 117.255C68.045 116.357 69.1928 115.568 70.4098 114.897C72.4647 113.766 73.4821 111.372 72.8662 109.103C71.9819 105.844 68.2847 104.319 65.3453 105.966C63.6256 106.929 61.9984 108.051 60.4844 109.315C57.8799 111.488 58.0195 115.542 60.7805 117.512C61.6965 118.165 62.8029 118.494 63.9257 118.448C65.0485 118.401 66.1241 117.982 66.9834 117.255Z" fill="#F7A6C1"/>
<path d="M72.0544 114.078C67.0364 116.287 63.0489 120.413 61.01 125.533C59.6147 129.037 62.2181 132.846 65.979 132.846C68.1366 132.846 70.114 131.555 70.9078 129.542C71.9116 127.003 73.8739 124.965 76.3678 123.87C78.5715 122.906 79.9444 120.628 79.5926 118.164C79.0513 114.369 75.5527 112.538 72.0544 114.078Z" fill="white"/>
</g>
<defs>
<linearGradient id="paint0_linear_123_1449" x1="82.5" y1="0" x2="82.5" y2="188" gradientUnits="userSpaceOnUse">
<stop stop-color="#E0E7FF"/>
<stop offset="1" stop-color="white"/>
</linearGradient>
<clipPath id="clip0_123_1449">
<path d="M0 12C0 5.37258 5.37258 0 12 0H153C159.627 0 165 5.37258 165 12V176C165 182.627 159.627 188 153 188H12C5.37258 188 0 182.627 0 176V12Z" fill="white"/>
</clipPath>
</defs>
</svg>
