<svg width="25" height="24" viewBox="0 0 25 24" fill="none" xmlns="http://www.w3.org/2000/svg">
<g id="Group">
<path id="Vector" d="M3.66667 3H21.6667C21.9319 3 22.1862 3.10536 22.3738 3.29289C22.5613 3.48043 22.6667 3.73478 22.6667 4V20C22.6667 20.2652 22.5613 20.5196 22.3738 20.7071C22.1862 20.8946 21.9319 21 21.6667 21H3.66667C3.40146 21 3.1471 20.8946 2.95956 20.7071C2.77203 20.5196 2.66667 20.2652 2.66667 20V4C2.66667 3.73478 2.77203 3.48043 2.95956 3.29289C3.1471 3.10536 3.40146 3 3.66667 3ZM12.7267 11.683L6.31467 6.238L5.01967 7.762L12.7397 14.317L20.3207 7.757L19.0127 6.244L12.7277 11.683H12.7267Z" fill="#6366F1"/>
</g>
</svg>
